<svg width="145" height="32" viewBox="0 0 145 32" fill="none" xmlns="http://www.w3.org/2000/svg">
<path fill-rule="evenodd" clip-rule="evenodd" d="M0 30.8279C0.843895 14.5192 6.77479 1.31978 14.5289 0.0895114C22.2329 -1.10744 29.5655 9.80802 32.0846 26.3443C32.428 30.5874 31.1299 31.3032 29.183 30.2815C22.0034 26.4241 16.8138 8.6017 7.65414 18.7564C8.25375 16.5479 8.95187 14.6952 9.64286 13.3715C6.78995 13.504 1.5578 17.4217 0 30.8279Z" fill="#1570EF"/>
<path fill-rule="evenodd" clip-rule="evenodd" d="M31.8803 29.615C31.436 30.8656 30.4204 30.9294 29.1827 30.2815C22.0032 26.4241 16.8136 8.6017 7.65395 18.7564C10.3744 14.128 13.3907 13.1549 16.3866 14.304C21.1895 16.1096 29.2713 34.2537 31.8803 29.615Z" fill="#1849A9"/>
<path d="M53.8849 13.3622H51.2287C51.1529 12.9266 51.0133 12.5407 50.8097 12.2045C50.6061 11.8636 50.3527 11.5748 50.0497 11.3381C49.7467 11.1013 49.401 10.9238 49.0128 10.8054C48.6293 10.6823 48.215 10.6207 47.7699 10.6207C46.9792 10.6207 46.2784 10.8196 45.6676 11.2173C45.0568 11.6103 44.5786 12.188 44.233 12.9503C43.8873 13.7079 43.7145 14.6335 43.7145 15.7273C43.7145 16.84 43.8873 17.7775 44.233 18.5398C44.5833 19.2973 45.0616 19.8703 45.6676 20.2585C46.2784 20.642 46.9768 20.8338 47.7628 20.8338C48.1984 20.8338 48.6056 20.777 48.9844 20.6634C49.3679 20.545 49.7112 20.3722 50.0142 20.1449C50.322 19.9176 50.58 19.6383 50.7884 19.3068C51.0014 18.9754 51.1482 18.5966 51.2287 18.1705L53.8849 18.1847C53.7855 18.8759 53.5701 19.5246 53.2386 20.1307C52.9119 20.7367 52.4834 21.2718 51.9531 21.7358C51.4228 22.1951 50.8026 22.5549 50.0923 22.8153C49.3821 23.071 48.5938 23.1989 47.7273 23.1989C46.4489 23.1989 45.3078 22.9029 44.304 22.3111C43.3002 21.7192 42.5095 20.8646 41.9318 19.7472C41.3542 18.6297 41.0653 17.2898 41.0653 15.7273C41.0653 14.16 41.3565 12.8201 41.9389 11.7074C42.5213 10.59 43.3144 9.73532 44.3182 9.14347C45.322 8.55161 46.4583 8.25568 47.7273 8.25568C48.5369 8.25568 49.2898 8.36932 49.9858 8.59659C50.6818 8.82386 51.3021 9.15767 51.8466 9.59801C52.3911 10.0336 52.8385 10.5687 53.1889 11.2031C53.544 11.8329 53.776 12.5526 53.8849 13.3622ZM57.88 27.0909C57.5296 27.0909 57.2053 27.0625 56.907 27.0057C56.6134 26.9536 56.379 26.892 56.2038 26.821L56.8004 24.8182C57.1745 24.9271 57.5083 24.9792 57.8018 24.9744C58.0954 24.9697 58.3535 24.8774 58.576 24.6974C58.8033 24.5223 58.995 24.2287 59.1513 23.8168L59.3714 23.2273L55.4155 12.0909H58.1428L60.657 20.3295H60.7706L63.2919 12.0909H66.0263L61.6584 24.321C61.4548 24.8987 61.1849 25.3935 60.8487 25.8054C60.5125 26.2221 60.1006 26.5393 59.6129 26.7571C59.13 26.9796 58.5523 27.0909 57.88 27.0909ZM67.919 23V8.45455H70.4901V13.8949H70.5966C70.7292 13.6297 70.9162 13.348 71.1577 13.0497C71.3991 12.7467 71.7259 12.4886 72.1378 12.2756C72.5497 12.0578 73.0753 11.9489 73.7145 11.9489C74.5573 11.9489 75.3172 12.1643 75.9943 12.5952C76.6761 13.0213 77.2159 13.6534 77.6136 14.4915C78.0161 15.3248 78.2173 16.3475 78.2173 17.5597C78.2173 18.7576 78.0208 19.7756 77.6278 20.6136C77.2348 21.4517 76.6998 22.0909 76.0227 22.5312C75.3456 22.9716 74.5786 23.1918 73.7216 23.1918C73.0966 23.1918 72.5781 23.0876 72.1662 22.8793C71.7543 22.6709 71.4228 22.42 71.1719 22.1264C70.9257 21.8281 70.7339 21.5464 70.5966 21.2812H70.4474V23H67.919ZM70.4403 17.5455C70.4403 18.2509 70.5398 18.8688 70.7386 19.3991C70.9422 19.9295 71.2334 20.3437 71.6122 20.642C71.9957 20.9356 72.4598 21.0824 73.0043 21.0824C73.5724 21.0824 74.0483 20.9309 74.4318 20.6278C74.8153 20.3201 75.1042 19.901 75.2983 19.3707C75.4972 18.8357 75.5966 18.2273 75.5966 17.5455C75.5966 16.8684 75.4995 16.267 75.3054 15.7415C75.1113 15.2159 74.8224 14.804 74.4389 14.5057C74.0554 14.2074 73.5772 14.0582 73.0043 14.0582C72.455 14.0582 71.9886 14.2027 71.6051 14.4915C71.2216 14.7803 70.9304 15.1851 70.7315 15.706C70.5374 16.2268 70.4403 16.84 70.4403 17.5455ZM85.2326 23.2131C84.1388 23.2131 83.1942 22.9858 82.3988 22.5312C81.6081 22.072 80.9996 21.4233 80.5735 20.5852C80.1474 19.7424 79.9343 18.7505 79.9343 17.6094C79.9343 16.4872 80.1474 15.5024 80.5735 14.6548C81.0044 13.8026 81.6057 13.1397 82.3775 12.6662C83.1493 12.188 84.056 11.9489 85.0977 11.9489C85.77 11.9489 86.4045 12.0578 87.0011 12.2756C87.6024 12.4886 88.1327 12.8201 88.592 13.2699C89.056 13.7197 89.4206 14.2926 89.6857 14.9886C89.9509 15.6799 90.0835 16.5038 90.0835 17.4602V18.2486H81.1417V16.5156H87.619C87.6142 16.0232 87.5077 15.5852 87.2994 15.2017C87.091 14.8134 86.7998 14.508 86.4258 14.2855C86.0565 14.063 85.6256 13.9517 85.1332 13.9517C84.6076 13.9517 84.146 14.0795 83.7482 14.3352C83.3505 14.5862 83.0404 14.9176 82.8178 15.3295C82.6 15.7367 82.4888 16.1842 82.484 16.6719V18.1847C82.484 18.8191 82.6 19.3636 82.832 19.8182C83.064 20.268 83.3884 20.6136 83.805 20.8551C84.2217 21.0919 84.7094 21.2102 85.2681 21.2102C85.6422 21.2102 85.9807 21.1581 86.2837 21.054C86.5868 20.9451 86.8496 20.7865 87.0721 20.5781C87.2946 20.3698 87.4627 20.1117 87.5763 19.804L89.9769 20.0739C89.8254 20.7083 89.5366 21.2623 89.1104 21.7358C88.689 22.2045 88.1493 22.5691 87.4911 22.8295C86.833 23.0852 86.0801 23.2131 85.2326 23.2131ZM92.2585 23V12.0909H94.7514V13.9091H94.8651C95.0639 13.2794 95.4048 12.794 95.8878 12.4531C96.3755 12.1075 96.9318 11.9347 97.5568 11.9347C97.6989 11.9347 97.8575 11.9418 98.0327 11.956C98.2126 11.9654 98.3617 11.982 98.4801 12.0057V14.3707C98.3712 14.3329 98.1984 14.2997 97.9616 14.2713C97.7296 14.2382 97.5047 14.2216 97.2869 14.2216C96.8182 14.2216 96.3968 14.3234 96.0227 14.527C95.6534 14.7259 95.3622 15.0028 95.1491 15.358C94.9361 15.7131 94.8295 16.1226 94.8295 16.5866V23H92.2585ZM112.752 13.3622H110.096C110.02 12.9266 109.88 12.5407 109.677 12.2045C109.473 11.8636 109.22 11.5748 108.917 11.3381C108.614 11.1013 108.268 10.9238 107.88 10.8054C107.496 10.6823 107.082 10.6207 106.637 10.6207C105.846 10.6207 105.146 10.8196 104.535 11.2173C103.924 11.6103 103.446 12.188 103.1 12.9503C102.754 13.7079 102.582 14.6335 102.582 15.7273C102.582 16.84 102.754 17.7775 103.1 18.5398C103.451 19.2973 103.929 19.8703 104.535 20.2585C105.146 20.642 105.844 20.8338 106.63 20.8338C107.066 20.8338 107.473 20.777 107.852 20.6634C108.235 20.545 108.578 20.3722 108.881 20.1449C109.189 19.9176 109.447 19.6383 109.656 19.3068C109.869 18.9754 110.015 18.5966 110.096 18.1705L112.752 18.1847C112.653 18.8759 112.437 19.5246 112.106 20.1307C111.779 20.7367 111.351 21.2718 110.82 21.7358C110.29 22.1951 109.67 22.5549 108.96 22.8153C108.249 23.071 107.461 23.1989 106.594 23.1989C105.316 23.1989 104.175 22.9029 103.171 22.3111C102.167 21.7192 101.377 20.8646 100.799 19.7472C100.221 18.6297 99.9325 17.2898 99.9325 15.7273C99.9325 14.16 100.224 12.8201 100.806 11.7074C101.388 10.59 102.182 9.73532 103.185 9.14347C104.189 8.55161 105.326 8.25568 106.594 8.25568C107.404 8.25568 108.157 8.36932 108.853 8.59659C109.549 8.82386 110.169 9.15767 110.714 9.59801C111.258 10.0336 111.706 10.5687 112.056 11.2031C112.411 11.8329 112.643 12.5526 112.752 13.3622ZM118.191 23.2202C117.499 23.2202 116.877 23.0971 116.323 22.8509C115.774 22.5999 115.338 22.2306 115.016 21.7429C114.699 21.2552 114.54 20.6539 114.54 19.9389C114.54 19.3234 114.654 18.8144 114.881 18.4119C115.108 18.0095 115.418 17.6875 115.811 17.446C116.204 17.2045 116.647 17.0223 117.14 16.8991C117.637 16.7713 118.15 16.679 118.681 16.6222C119.32 16.5559 119.838 16.4967 120.236 16.4446C120.634 16.3878 120.923 16.3026 121.103 16.1889C121.287 16.0705 121.38 15.8883 121.38 15.642V15.5994C121.38 15.0644 121.221 14.6501 120.904 14.3565C120.587 14.063 120.13 13.9162 119.533 13.9162C118.903 13.9162 118.404 14.0535 118.034 14.3281C117.67 14.6027 117.424 14.9271 117.296 15.3011L114.895 14.9602C115.085 14.2973 115.397 13.7434 115.833 13.2983C116.268 12.8485 116.801 12.5123 117.431 12.2898C118.06 12.0625 118.757 11.9489 119.519 11.9489C120.044 11.9489 120.568 12.0104 121.088 12.1335C121.609 12.2566 122.085 12.4602 122.516 12.7443C122.947 13.0237 123.292 13.4048 123.553 13.8878C123.818 14.3707 123.951 14.9744 123.951 15.6989V23H121.479V21.5014H121.394C121.238 21.8045 121.017 22.0885 120.733 22.3537C120.454 22.6141 120.101 22.8248 119.675 22.9858C119.254 23.142 118.759 23.2202 118.191 23.2202ZM118.858 21.331C119.374 21.331 119.822 21.2292 120.201 21.0256C120.579 20.8172 120.871 20.5426 121.074 20.2017C121.283 19.8608 121.387 19.4891 121.387 19.0866V17.8011C121.306 17.8674 121.169 17.929 120.975 17.9858C120.785 18.0426 120.572 18.0923 120.336 18.1349C120.099 18.1776 119.864 18.2154 119.632 18.2486C119.4 18.2817 119.199 18.3101 119.029 18.3338C118.645 18.3859 118.302 18.4711 117.999 18.5895C117.696 18.7079 117.457 18.8736 117.282 19.0866C117.106 19.295 117.019 19.5649 117.019 19.8963C117.019 20.3698 117.192 20.7273 117.537 20.9688C117.883 21.2102 118.323 21.331 118.858 21.331ZM126.536 23V12.0909H129.029V13.9091H129.142C129.341 13.2794 129.682 12.794 130.165 12.4531C130.653 12.1075 131.209 11.9347 131.834 11.9347C131.976 11.9347 132.135 11.9418 132.31 11.956C132.49 11.9654 132.639 11.982 132.757 12.0057V14.3707C132.649 14.3329 132.476 14.2997 132.239 14.2713C132.007 14.2382 131.782 14.2216 131.564 14.2216C131.096 14.2216 130.674 14.3234 130.3 14.527C129.931 14.7259 129.64 15.0028 129.426 15.358C129.213 15.7131 129.107 16.1226 129.107 16.5866V23H126.536ZM138.846 23.2131C137.752 23.2131 136.808 22.9858 136.012 22.5312C135.221 22.072 134.613 21.4233 134.187 20.5852C133.761 19.7424 133.548 18.7505 133.548 17.6094C133.548 16.4872 133.761 15.5024 134.187 14.6548C134.618 13.8026 135.219 13.1397 135.991 12.6662C136.763 12.188 137.669 11.9489 138.711 11.9489C139.383 11.9489 140.018 12.0578 140.614 12.2756C141.216 12.4886 141.746 12.8201 142.205 13.2699C142.669 13.7197 143.034 14.2926 143.299 14.9886C143.564 15.6799 143.697 16.5038 143.697 17.4602V18.2486H134.755V16.5156H141.232C141.228 16.0232 141.121 15.5852 140.913 15.2017C140.704 14.8134 140.413 14.508 140.039 14.2855C139.67 14.063 139.239 13.9517 138.746 13.9517C138.221 13.9517 137.759 14.0795 137.362 14.3352C136.964 14.5862 136.654 14.9176 136.431 15.3295C136.213 15.7367 136.102 16.1842 136.097 16.6719V18.1847C136.097 18.8191 136.213 19.3636 136.445 19.8182C136.677 20.268 137.002 20.6136 137.418 20.8551C137.835 21.0919 138.323 21.2102 138.881 21.2102C139.255 21.2102 139.594 21.1581 139.897 21.054C140.2 20.9451 140.463 20.7865 140.685 20.5781C140.908 20.3698 141.076 20.1117 141.19 19.804L143.59 20.0739C143.439 20.7083 143.15 21.2623 142.724 21.7358C142.302 22.2045 141.763 22.5691 141.104 22.8295C140.446 23.0852 139.693 23.2131 138.846 23.2131Z" fill="#101828"/>
</svg>
